<svg xmlns="http://www.w3.org/2000/svg" xmlns:xlink="http://www.w3.org/1999/xlink" width="248" zoomAndPan="magnify" viewBox="0 0 186 60" height="80" preserveAspectRatio="xMidYMid meet" version="1.0"><defs><g/><clipPath id="809690c520"><path d="M 14 8.25 L 32 8.25 L 32 41.25 L 14 41.25 Z M 14 8.25 " clip-rule="nonzero"/></clipPath><clipPath id="ddbd006a0a"><path d="M 29 30 L 32.851562 30 L 32.851562 39 L 29 39 Z M 29 30 " clip-rule="nonzero"/></clipPath></defs><g clip-path="url(#809690c520)"><path fill="#ffffff" d="M 31.542969 15.34375 L 31.542969 29.949219 C 31.542969 29.949219 29.820312 29.625 29.464844 31.554688 C 29.464844 31.554688 28.382812 29.21875 26.773438 27.746094 C 25.167969 26.277344 22.132812 23.554688 19.273438 22.300781 L 21.246094 24.742188 C 21.246094 24.742188 19.359375 27.039062 19.578125 29.488281 C 19.796875 31.929688 23.71875 34.078125 25.410156 35.082031 C 27.097656 36.082031 31.175781 38.566406 31.542969 39.566406 C 31.542969 39.566406 26.210938 38.042969 22.058594 38.710938 C 17.910156 39.378906 15.320312 41.484375 15.320312 41.484375 C 15.320312 41.484375 16.019531 36.488281 17.949219 34.484375 C 17.949219 34.484375 14.746094 28.519531 18.640625 22.136719 C 18.640625 22.136719 14.777344 19.546875 15.050781 16.136719 C 15.050781 16.136719 16.855469 19.527344 19.964844 20.777344 C 19.964844 20.777344 13.351562 15.9375 14.207031 8.261719 L 18.355469 12.851562 C 18.355469 12.851562 21.945312 13.589844 23.019531 15.699219 C 24.09375 17.804688 26.578125 20.777344 26.578125 20.777344 L 24.542969 16.335938 C 24.542969 16.34375 27.503906 14.761719 31.542969 15.34375 Z M 31.542969 15.34375 " fill-opacity="1" fill-rule="nonzero"/></g><path fill="#ffffff" d="M 28.507812 31.355469 L 27.722656 30.15625 C 27.722656 30.15625 25.953125 31.273438 24.554688 29.855469 C 23.15625 28.4375 24.050781 26.410156 24.050781 26.410156 L 23.019531 25.652344 C 23.019531 25.652344 21.902344 27.589844 22.90625 29.761719 C 23.824219 31.710938 26.097656 32.242188 28.507812 31.355469 Z M 28.507812 31.355469 " fill-opacity="1" fill-rule="nonzero"/><g clip-path="url(#ddbd006a0a)"><path fill="#ffffff" d="M 31.394531 30.730469 C 31.363281 30.71875 31.332031 30.71875 31.300781 30.71875 C 30.53125 30.648438 30.144531 31.492188 30.050781 32.128906 C 29.71875 34.320312 30.164062 36.75 31.386719 38.597656 C 31.59375 38.261719 31.742188 37.917969 31.867188 37.554688 C 31.96875 37.238281 32.1875 36.75 32.179688 36.414062 C 32.386719 35.65625 32.523438 34.871094 32.566406 34.078125 C 32.617188 33.214844 32.628906 32.117188 32.179688 31.347656 C 32.011719 31.054688 31.730469 30.804688 31.394531 30.730469 Z M 31.394531 30.730469 " fill-opacity="1" fill-rule="nonzero"/></g><g fill="#ffffff" fill-opacity="1"><g transform="translate(41.434002, 36.000001)"><g><path d="M 11.9375 -9.515625 C 11.9375 -8.703125 11.75 -7.957031 11.375 -7.28125 C 11 -6.613281 10.425781 -6.070312 9.65625 -5.65625 C 8.882812 -5.25 7.925781 -5.046875 6.78125 -5.046875 L 4.65625 -5.046875 L 4.65625 0 L 1.234375 0 L 1.234375 -14.046875 L 6.78125 -14.046875 C 7.894531 -14.046875 8.835938 -13.847656 9.609375 -13.453125 C 10.390625 -13.066406 10.972656 -12.535156 11.359375 -11.859375 C 11.742188 -11.179688 11.9375 -10.398438 11.9375 -9.515625 Z M 6.515625 -7.765625 C 7.171875 -7.765625 7.65625 -7.914062 7.96875 -8.21875 C 8.289062 -8.53125 8.453125 -8.960938 8.453125 -9.515625 C 8.453125 -10.078125 8.289062 -10.507812 7.96875 -10.8125 C 7.65625 -11.125 7.171875 -11.28125 6.515625 -11.28125 L 4.65625 -11.28125 L 4.65625 -7.765625 Z M 6.515625 -7.765625 "/></g></g></g><g fill="#ffffff" fill-opacity="1"><g transform="translate(53.909092, 36.000001)"><g><path d="M 7.875 0.140625 C 6.5625 0.140625 5.351562 -0.164062 4.25 -0.78125 C 3.144531 -1.394531 2.269531 -2.25 1.625 -3.34375 C 0.976562 -4.445312 0.65625 -5.6875 0.65625 -7.0625 C 0.65625 -8.4375 0.976562 -9.671875 1.625 -10.765625 C 2.269531 -11.859375 3.144531 -12.707031 4.25 -13.3125 C 5.351562 -13.925781 6.5625 -14.234375 7.875 -14.234375 C 9.195312 -14.234375 10.40625 -13.925781 11.5 -13.3125 C 12.601562 -12.707031 13.472656 -11.859375 14.109375 -10.765625 C 14.742188 -9.671875 15.0625 -8.4375 15.0625 -7.0625 C 15.0625 -5.6875 14.738281 -4.445312 14.09375 -3.34375 C 13.457031 -2.25 12.59375 -1.394531 11.5 -0.78125 C 10.40625 -0.164062 9.195312 0.140625 7.875 0.140625 Z M 7.875 -2.984375 C 9 -2.984375 9.894531 -3.351562 10.5625 -4.09375 C 11.238281 -4.84375 11.578125 -5.832031 11.578125 -7.0625 C 11.578125 -8.300781 11.238281 -9.289062 10.5625 -10.03125 C 9.894531 -10.769531 9 -11.140625 7.875 -11.140625 C 6.75 -11.140625 5.847656 -10.769531 5.171875 -10.03125 C 4.492188 -9.300781 4.15625 -8.3125 4.15625 -7.0625 C 4.15625 -5.820312 4.492188 -4.832031 5.171875 -4.09375 C 5.847656 -3.351562 6.75 -2.984375 7.875 -2.984375 Z M 7.875 -2.984375 "/></g></g></g><g fill="#ffffff" fill-opacity="1"><g transform="translate(69.622882, 36.000001)"><g><path d="M 0.65625 -7.046875 C 0.65625 -8.429688 0.953125 -9.664062 1.546875 -10.75 C 2.148438 -11.832031 2.988281 -12.675781 4.0625 -13.28125 C 5.144531 -13.894531 6.363281 -14.203125 7.71875 -14.203125 C 9.382812 -14.203125 10.8125 -13.757812 12 -12.875 C 13.1875 -12 13.976562 -10.800781 14.375 -9.28125 L 10.625 -9.28125 C 10.34375 -9.863281 9.941406 -10.304688 9.421875 -10.609375 C 8.910156 -10.921875 8.332031 -11.078125 7.6875 -11.078125 C 6.625 -11.078125 5.765625 -10.707031 5.109375 -9.96875 C 4.460938 -9.238281 4.140625 -8.265625 4.140625 -7.046875 C 4.140625 -5.816406 4.460938 -4.832031 5.109375 -4.09375 C 5.765625 -3.363281 6.625 -3 7.6875 -3 C 8.332031 -3 8.910156 -3.148438 9.421875 -3.453125 C 9.941406 -3.765625 10.34375 -4.210938 10.625 -4.796875 L 14.375 -4.796875 C 13.976562 -3.273438 13.1875 -2.078125 12 -1.203125 C 10.8125 -0.335938 9.382812 0.09375 7.71875 0.09375 C 6.363281 0.09375 5.144531 -0.207031 4.0625 -0.8125 C 2.988281 -1.414062 2.148438 -2.253906 1.546875 -3.328125 C 0.953125 -4.410156 0.65625 -5.648438 0.65625 -7.046875 Z M 0.65625 -7.046875 "/></g></g></g><g fill="#ffffff" fill-opacity="1"><g transform="translate(84.856867, 36.000001)"><g><path d="M 9.375 0 L 4.65625 -6.203125 L 4.65625 0 L 1.234375 0 L 1.234375 -14.046875 L 4.65625 -14.046875 L 4.65625 -7.875 L 9.34375 -14.046875 L 13.359375 -14.046875 L 7.921875 -7.15625 L 13.5625 0 Z M 9.375 0 "/></g></g></g><g fill="#ffffff" fill-opacity="1"><g transform="translate(98.791376, 36.000001)"><g><path d="M 4.65625 -11.296875 L 4.65625 -8.453125 L 9.234375 -8.453125 L 9.234375 -5.8125 L 4.65625 -5.8125 L 4.65625 -2.734375 L 9.84375 -2.734375 L 9.84375 0 L 1.234375 0 L 1.234375 -14.046875 L 9.84375 -14.046875 L 9.84375 -11.296875 Z M 4.65625 -11.296875 "/></g></g></g><g fill="#ffffff" fill-opacity="1"><g transform="translate(109.607118, 36.000001)"><g><path d="M 11.34375 -14.046875 L 11.34375 -11.296875 L 7.625 -11.296875 L 7.625 0 L 4.203125 0 L 4.203125 -11.296875 L 0.484375 -11.296875 L 0.484375 -14.046875 Z M 11.34375 -14.046875 "/></g></g></g><g fill="#ffffff" fill-opacity="1"><g transform="translate(125.660775, 36.000001)"><g><path d="M 7.875 0.140625 C 6.5625 0.140625 5.351562 -0.164062 4.25 -0.78125 C 3.144531 -1.394531 2.269531 -2.25 1.625 -3.34375 C 0.976562 -4.445312 0.65625 -5.6875 0.65625 -7.0625 C 0.65625 -8.4375 0.976562 -9.671875 1.625 -10.765625 C 2.269531 -11.859375 3.144531 -12.707031 4.25 -13.3125 C 5.351562 -13.925781 6.5625 -14.234375 7.875 -14.234375 C 9.195312 -14.234375 10.40625 -13.925781 11.5 -13.3125 C 12.601562 -12.707031 13.472656 -11.859375 14.109375 -10.765625 C 14.742188 -9.671875 15.0625 -8.4375 15.0625 -7.0625 C 15.0625 -5.6875 14.738281 -4.445312 14.09375 -3.34375 C 13.457031 -2.25 12.59375 -1.394531 11.5 -0.78125 C 10.40625 -0.164062 9.195312 0.140625 7.875 0.140625 Z M 7.875 -2.984375 C 9 -2.984375 9.894531 -3.351562 10.5625 -4.09375 C 11.238281 -4.84375 11.578125 -5.832031 11.578125 -7.0625 C 11.578125 -8.300781 11.238281 -9.289062 10.5625 -10.03125 C 9.894531 -10.769531 9 -11.140625 7.875 -11.140625 C 6.75 -11.140625 5.847656 -10.769531 5.171875 -10.03125 C 4.492188 -9.300781 4.15625 -8.3125 4.15625 -7.0625 C 4.15625 -5.820312 4.492188 -4.832031 5.171875 -4.09375 C 5.847656 -3.351562 6.75 -2.984375 7.875 -2.984375 Z M 7.875 -2.984375 "/></g></g></g><g fill="#ffffff" fill-opacity="1"><g transform="translate(141.374565, 36.000001)"><g><path d="M 20.5625 -14.046875 L 16.90625 0 L 12.765625 0 L 10.515625 -9.234375 L 8.203125 0 L 4.0625 0 L 0.5 -14.046875 L 4.15625 -14.046875 L 6.1875 -3.8125 L 8.6875 -14.046875 L 12.4375 -14.046875 L 14.84375 -3.8125 L 16.875 -14.046875 Z M 20.5625 -14.046875 "/></g></g></g><g fill="#ffffff" fill-opacity="1"><g transform="translate(162.406264, 36.000001)"><g><path d="M 4.65625 -2.640625 L 9.140625 -2.640625 L 9.140625 0 L 1.234375 0 L 1.234375 -14.046875 L 4.65625 -14.046875 Z M 4.65625 -2.640625 "/></g></g></g></svg>